<svg width="422" height="422" viewBox="0 0 422 422" fill="none" xmlns="http://www.w3.org/2000/svg">
<path fill-rule="evenodd" clip-rule="evenodd" d="M311.744 345.696C311.905 345.754 310.797 346.727 308.042 348.879C306.665 349.956 304.9 351.361 302.545 352.904C301.378 353.693 300.097 354.561 298.692 355.512C297.29 356.468 295.673 357.358 293.97 358.403C283.393 364.712 271.886 369.892 259.784 373.699C247.663 377.436 234.969 379.789 222.097 380.665C218.883 380.979 215.648 380.932 212.417 381.05C209.183 381.091 205.946 380.948 202.708 380.871C196.242 380.458 189.767 379.879 183.37 378.748C170.573 376.581 157.961 373.091 146.032 368.051C143.622 366.984 141.256 366.028 139.031 364.964C136.818 363.873 134.68 362.817 132.61 361.797C128.571 359.567 124.781 357.521 121.4 355.314C117.929 353.253 114.909 350.997 111.993 349.009C109.164 346.898 106.546 344.886 104.13 342.939C94.5631 335.01 88.0745 328.238 82.4322 321.59C76.8206 314.921 71.8094 308.495 66.5074 300.014C65.0913 297.951 63.875 295.628 62.4458 293.25C60.9891 290.884 59.7114 288.245 58.2503 285.48C57.888 284.786 57.5214 284.082 57.1482 283.366C56.8101 282.633 56.4676 281.888 56.1185 281.133C55.4214 279.619 54.7024 278.055 53.9581 276.439C53.2161 274.821 52.5871 273.092 51.8593 271.335C51.1535 269.568 50.3806 267.757 49.7538 265.82C50.0239 266.568 49.8263 265.905 49.2555 264.116C48.9679 263.222 48.5903 262.048 48.1336 260.625C47.6748 259.205 47.2675 257.498 46.7351 255.6C44.656 248.001 42.2696 236.782 41.3563 224.281C40.3914 211.796 40.8283 198.088 42.7526 185.913C44.6264 173.727 47.6682 163.097 50.1315 156.252C53.5092 146.641 57.2096 138.846 60.6027 132.289C64.1538 125.811 67.3614 120.536 70.3824 116.182C73.3298 111.772 76.0938 108.304 78.4715 105.193C79.7065 103.674 80.9096 102.296 82.0271 100.956C83.1544 99.627 84.1973 98.336 85.3246 97.1757C87.5519 94.8342 89.541 92.4939 91.9186 90.2786C93.0811 89.1447 94.2766 87.98 95.5357 86.7538C96.8079 85.5408 98.2284 84.3574 99.7071 83.039C105.696 77.8884 113.5 71.4326 126.486 63.9724C128.22 63.0042 129.866 62.0854 131.436 61.2094C133.048 60.4179 134.582 59.6659 136.048 58.9458C138.955 57.4529 141.727 56.3826 144.276 55.298C146.809 54.1739 149.274 53.3934 151.613 52.5383C153.945 51.6601 156.25 50.9729 158.575 50.2835C159.734 49.93 160.899 49.5776 162.08 49.2176C163.268 48.8773 164.491 48.5941 165.734 48.2659C168.224 47.6204 170.824 46.9057 173.704 46.336C175.135 46.0198 176.625 45.6916 178.182 45.348C179.754 45.067 181.396 44.774 183.122 44.4655C186.564 43.7662 190.394 43.3633 194.652 42.7497C201.804 42.0471 209.489 41.54 217.402 41.8265C225.301 42.1338 233.439 42.8045 241.409 44.303C257.376 47.134 272.722 52.3813 285.118 58.4913C291.82 61.6308 298.13 65.3983 304.264 69.3084C307.247 71.3931 310.311 73.3383 313.138 75.5942C314.571 76.6952 316.022 77.7666 317.432 78.8852C318.809 80.0466 320.184 81.2047 321.556 82.3628C332.516 91.6508 341.962 102.386 350.081 113.886C352.19 116.71 353.97 119.749 355.887 122.691C356.866 124.151 357.653 125.724 358.546 127.233C359.399 128.764 360.309 130.265 361.115 131.82L363.48 136.512L364.658 138.858L367.845 146.056C368.516 147.67 369.111 149.314 369.748 150.943C372.3 157.456 374.268 164.175 375.998 170.953C376.719 174.376 377.622 177.764 378.136 181.233L379.024 186.416L379.663 191.639C381.362 205.584 381.086 219.806 379.255 233.945C378.244 241.002 376.94 248.069 375.013 255.029C373.227 262.027 370.795 268.893 368.083 275.696C357.026 302.819 338.271 327.929 312.797 347.089C312.814 347.073 314.644 345.465 317.532 342.928C319.001 341.697 320.617 340.116 322.37 338.402C323.248 337.551 324.16 336.665 325.097 335.757C326.031 334.851 326.909 333.839 327.837 332.865C335.266 325.058 342.183 315.803 343.985 313.061C346.704 309.453 349.07 305.765 351.487 302.178C352.619 300.335 353.745 298.502 354.872 296.671C356.029 294.857 356.989 292.931 358.068 291.061C362.207 283.491 365.998 275.517 369.184 266.401C373.305 254.495 376.187 241.838 377.65 228.86C379.17 215.882 378.962 202.572 377.365 189.46C374.205 163.19 364.24 137.911 350.033 117.207C341.651 105.187 331.922 94.0582 320.775 84.5243L316.562 80.9918C315.162 79.8073 313.656 78.7579 312.209 77.6338C309.335 75.3538 306.252 73.3624 303.234 71.28C297.058 67.338 290.738 63.5826 284.089 60.4771C270.914 54.0114 256.806 49.5348 242.417 46.6741C227.986 44.011 213.215 43.0055 198.562 44.1373C183.896 45.0989 169.414 48.2373 155.507 52.9719C148.613 55.5033 141.758 58.2048 135.24 61.6177C131.91 63.1809 128.773 65.1063 125.551 66.877C123.956 67.7914 122.432 68.8211 120.867 69.7871C119.321 70.7816 117.73 71.7081 116.251 72.8026C104.154 81.1476 92.9538 90.8791 83.4299 102.098C78.5439 107.601 74.2727 113.609 70.1496 119.693C68.2418 122.834 66.1748 125.883 64.4634 129.14C63.5819 130.752 62.6511 132.34 61.8102 133.973L59.37 138.918C46.4892 165.886 40.8656 196.384 43.5791 226.245C46.2631 256.078 57.0351 285.218 74.7722 309.359C93.2535 334.851 118.747 354.753 147.658 366.265C176.526 377.851 208.596 381.321 239.61 375.98C240.475 375.833 241.533 375.653 242.757 375.446C243.979 375.229 245.347 374.887 246.863 374.563C248.372 374.215 250.032 373.89 251.777 373.447C253.515 372.971 255.363 372.467 257.29 371.941C264.967 369.713 273.788 366.552 281.897 362.79C289.975 358.973 297.402 354.775 302.738 351.369C304.105 350.566 305.303 349.76 306.36 349.036C307.429 348.331 308.361 347.716 309.133 347.207C310.679 346.196 311.613 345.651 311.744 345.696Z" fill="url(#paint0_radial_60_6209)" fill-opacity="0.5"/>
<path fill-rule="evenodd" clip-rule="evenodd" d="M83.541 338.449C83.4686 338.665 82.2292 337.676 79.4794 335.121C78.1039 333.845 76.3191 332.204 74.2981 329.96C73.2707 328.851 72.1389 327.631 70.9017 326.298C69.658 324.964 68.4528 323.394 67.0685 321.753C58.6643 311.542 51.3271 300.132 45.3763 287.86C39.4969 275.557 35.0193 262.411 32.1015 248.845C31.2716 245.473 30.8237 242.022 30.2013 238.6C29.6601 235.165 29.3154 231.696 28.9005 228.236C28.3472 221.29 27.973 214.307 28.2002 207.324C28.5515 193.37 30.3451 179.411 33.8886 165.944C34.657 163.215 35.3124 160.551 36.106 158.02C36.9304 155.499 37.7273 153.062 38.5001 150.704C40.2598 146.064 41.8614 141.72 43.6946 137.786C45.3609 133.779 47.3039 130.222 48.978 126.816C50.7947 123.484 52.5401 120.393 54.247 117.527C61.2363 106.144 67.4604 98.2164 73.6702 91.2007C79.9086 84.2136 85.9659 77.895 94.1527 70.9243C96.1253 69.0944 98.4031 67.4357 100.707 65.5399C102.994 63.6178 105.598 61.8416 108.307 59.8481C108.987 59.3541 109.679 58.8513 110.38 58.3409C111.106 57.8656 111.844 57.3825 112.592 56.8908C114.093 55.9083 115.641 54.894 117.242 53.8456C118.845 52.7984 120.584 51.8543 122.339 50.7994C124.106 49.7675 125.911 48.6566 127.872 47.6797C127.119 48.0902 127.799 47.7828 129.618 46.9057C130.526 46.4633 131.72 45.8837 133.165 45.1812C134.608 44.4753 136.363 43.7815 138.303 42.9253C146.079 39.5497 157.658 35.2894 170.83 32.4013C183.975 29.4604 198.64 27.828 211.898 28.0212C225.16 28.1585 236.94 29.7864 244.597 31.3891C255.339 33.5418 264.191 36.3081 271.68 38.9306C279.109 41.7331 285.208 44.348 290.298 46.9024C295.434 49.369 299.545 51.7808 303.218 53.8336C305.022 54.9149 306.673 55.9818 308.268 56.9665C309.855 57.961 311.387 58.8722 312.795 59.8909C315.629 61.8976 318.424 63.6518 321.148 65.8363C322.534 66.8967 323.956 67.9879 325.457 69.1372C326.944 70.3019 328.421 71.6312 330.052 72.999C336.453 78.5744 344.519 85.8832 354.434 98.5621C355.727 100.261 356.953 101.872 358.123 103.409C359.207 105.006 360.239 106.525 361.223 107.977C363.245 110.847 364.792 113.641 366.322 116.194C367.889 118.727 369.079 121.236 370.328 123.601C370.929 124.795 371.573 125.941 372.114 127.13C372.656 128.318 373.194 129.497 373.735 130.681C374.28 131.862 374.825 133.049 375.381 134.254C375.915 135.467 376.397 136.726 376.929 137.999C377.984 140.549 379.133 143.205 380.174 146.177C380.729 147.649 381.305 149.18 381.909 150.783C382.45 152.409 383.016 154.106 383.611 155.891C384.889 159.436 385.921 163.436 387.251 167.86C389.137 175.34 390.888 183.425 391.821 191.878C392.732 200.32 393.284 209.074 392.924 217.779C392.385 235.193 389.164 252.321 384.57 266.441C382.261 274.052 379.224 281.342 376.01 288.466C374.25 291.958 372.654 295.519 370.689 298.872C369.738 300.564 368.821 302.272 367.848 303.945C366.825 305.587 365.804 307.228 364.783 308.865C356.589 321.952 346.625 333.648 335.642 344.051C332.962 346.729 330.003 349.091 327.168 351.581C325.767 352.846 324.214 353.927 322.745 355.107C321.247 356.25 319.791 357.448 318.26 358.546L313.633 361.783L311.318 363.398L304.152 367.894C302.539 368.858 300.88 369.744 299.248 370.672C292.713 374.387 285.865 377.516 278.923 380.399C275.393 381.692 271.926 383.174 268.316 384.253L262.94 385.995L257.481 387.478C242.906 391.43 227.734 393.323 212.408 393.55C204.744 393.559 197.024 393.258 189.322 392.278C181.602 391.454 173.921 389.923 166.267 388.082C135.708 380.485 106.101 364.385 81.7989 340.216C81.8197 340.232 83.8429 341.9 87.034 344.529C88.5938 345.876 90.55 347.32 92.6686 348.886C93.7235 349.671 94.819 350.487 95.9431 351.324C97.0639 352.159 98.2879 352.918 99.48 353.734C109.034 360.276 120.003 366.012 123.196 367.475C127.453 369.769 131.729 371.691 135.9 373.696C138.027 374.612 140.14 375.525 142.253 376.435C144.35 377.385 146.536 378.11 148.678 378.972C157.32 382.215 166.336 385.051 176.481 387.029C189.723 389.572 203.57 390.701 217.544 390.282C231.526 389.923 245.6 387.689 259.254 384.006C286.616 376.675 311.908 362.257 331.633 343.992C343.065 333.245 353.346 321.223 361.723 307.95L364.814 302.944C365.852 301.28 366.732 299.523 367.7 297.819C369.671 294.425 371.306 290.854 373.046 287.34C376.271 280.193 379.276 272.926 381.545 265.41C382.826 261.699 383.708 257.869 384.758 254.089C385.221 252.182 385.603 250.257 386.031 248.342L386.656 245.466C386.845 244.505 386.988 243.532 387.157 242.566L388.133 236.76L388.834 230.915L389.177 227.99L389.387 225.054C389.518 223.095 389.687 221.139 389.789 219.18C390.407 203.494 389.224 187.7 385.798 172.355C382.551 156.969 377.028 142.108 369.905 128.096C366.177 121.178 362.276 114.326 357.675 107.938C355.515 104.647 352.999 101.615 350.634 98.4689C349.425 96.9188 348.102 95.4578 346.842 93.9473C345.554 92.4598 344.331 90.9142 342.948 89.5135C332.273 77.9597 320.264 67.5641 306.931 59.1686C300.358 54.8237 293.343 51.2056 286.27 47.7576C282.651 46.2108 279.105 44.483 275.394 43.1602C273.55 42.4708 271.728 41.7243 269.867 41.08L264.255 39.2423C233.713 29.6755 200.513 28.3418 169.257 35.7724C138.028 43.1657 108.766 59.0489 85.8967 81.5691C61.7094 105.087 44.5662 135.188 36.836 167.589C29.0213 199.961 30.2859 234.443 40.6616 266.477C40.9492 267.371 41.3005 268.464 41.7078 269.728C42.1238 270.989 42.6946 272.385 43.2687 273.941C43.867 275.487 44.4663 277.193 45.2007 278.975C45.968 280.743 46.7858 282.622 47.6365 284.583C51.1668 292.373 55.8585 301.234 61.0694 309.255C66.3352 317.237 71.8952 324.476 76.2916 329.637C77.3421 330.968 78.374 332.123 79.2917 333.142C80.1919 334.178 80.9767 335.082 81.6244 335.828C82.8978 337.345 83.5948 338.275 83.541 338.449Z" fill="url(#paint1_radial_60_6209)" fill-opacity="0.5"/>
<path fill-rule="evenodd" clip-rule="evenodd" d="M376.196 375.161C376.006 375.228 375.697 374.917 375.246 374.152C375.02 373.77 374.759 373.274 374.46 372.657C374.105 372.058 373.695 371.343 373.239 370.502C371.713 367.958 369.983 365.575 368.041 363.364C366.066 361.176 363.868 359.189 361.494 357.423C356.753 353.896 351.104 351.428 345.219 350.715C340.42 350.171 336.838 350.826 334.044 351.462C332.673 351.889 331.435 352.181 330.372 352.653C329.832 352.868 329.319 353.074 328.821 353.273C328.343 353.517 327.88 353.751 327.426 353.981C325.608 354.905 324.04 356.015 322.289 357.551C320.6 359.147 318.665 361.175 316.776 364.372C317.179 363.73 313.988 367.345 312.151 372.743C311.881 373.399 311.695 374.095 311.517 374.802C311.333 375.503 311.111 376.231 311.013 376.889C310.786 378.247 310.77 379.656 310.917 380.936C311.067 382.216 311.396 383.373 311.846 384.24C312.298 385.105 312.83 385.696 313.332 386.043C314.833 387.069 316.459 386.813 317.621 385.98C318.81 385.162 319.502 383.973 319.889 382.953C320.274 381.911 320.347 380.967 320.268 380.179C320.204 379.393 319.939 378.738 319.622 378.113C318.983 376.894 318.135 375.94 316.745 374.904C315.337 373.915 313.309 372.781 309.958 372.15C306.353 371.555 304.121 371.391 301.781 371.455C299.465 371.558 296.928 371.959 293.365 374.148C287.408 377.74 280.835 383.501 276.5 388.496C271.813 393.818 267.707 399.384 263.159 404.548C258.624 409.697 253.603 414.54 247.403 417.932C241.123 421.268 233.722 422.575 226.362 421.236C222.702 420.538 219.017 419.077 215.911 416.54C215.141 415.91 214.453 415.159 213.737 414.447C213.143 413.627 212.442 412.863 211.942 411.967C211.463 411.058 210.892 410.195 210.527 409.204C210.14 408.229 209.845 407.216 209.638 406.181C209.638 406.181 209.939 406.796 210.498 407.667C211.045 408.545 211.905 409.631 212.926 410.561C213.406 411.045 213.888 411.514 214.45 411.88C214.992 412.256 215.45 412.646 215.938 412.918C216.944 413.435 217.629 413.876 217.98 414.028C218.889 414.502 219.669 415.044 220.548 415.447C221.366 415.938 222.25 416.294 223.121 416.712C224.898 417.45 226.815 418.138 229.03 418.337C234.759 418.936 241.133 418.018 246.542 415.129C252.045 412.186 256.77 407.819 260.627 403.16C265.152 397.717 269.305 391.867 274.129 386.356C279.001 380.843 284.689 375.848 291.47 372.446C294.854 370.763 298.526 369.52 302.357 369.037C303.314 368.927 304.283 368.887 305.243 368.823C306.21 368.859 307.178 368.848 308.14 368.936C310.045 369.15 312.006 369.438 313.856 370.162C315.707 370.84 317.484 371.807 319.028 373.148C320.573 374.475 321.839 376.245 322.48 378.265C323.133 380.429 322.84 382.665 321.976 384.561C321.099 386.437 319.655 388.17 317.549 388.995C316.496 389.406 315.298 389.555 314.173 389.343C313.081 389.126 312.029 388.661 311.156 387.965C309.432 386.52 308.587 384.512 308.172 382.593C307.762 380.646 307.743 378.684 308.016 376.759C308.147 375.779 308.415 374.872 308.661 373.964C308.878 373.043 309.186 372.153 309.531 371.275C312.167 364.198 317.129 358.148 323.29 353.867C329.752 349.372 337.716 346.811 345.748 347.488C353.741 348.137 361.43 351.765 367.221 357.45C368.547 358.664 372.028 362.419 374.067 366.604C374.532 367.666 375.04 368.674 375.372 369.667C375.683 370.666 375.994 371.571 376.156 372.373C376.443 373.992 376.497 375.056 376.196 375.161Z" fill="url(#paint2_radial_60_6209)" fill-opacity="0.5"/>
<path fill-rule="evenodd" clip-rule="evenodd" d="M375.536 374.506C375.514 374.708 375.132 374.827 374.26 374.83C373.824 374.831 373.264 374.805 372.564 374.741C371.881 374.623 371.064 374.451 370.092 374.227C367.138 373.425 364.251 372.079 361.603 370.29C358.977 368.47 356.621 366.197 354.598 363.638C350.545 358.516 348.037 352.096 347.442 345.549C346.99 340.183 347.944 336.261 348.825 333.289C349.377 331.826 349.788 330.522 350.359 329.409C350.621 328.843 350.87 328.304 351.111 327.783C351.387 327.28 351.654 326.794 351.918 326.317C352.951 324.397 354.053 322.698 355.469 320.63C356.957 318.621 358.733 316.182 361.814 313.352C361.274 314.035 365.309 310.458 371.454 308.423C372.2 308.129 372.996 307.922 373.803 307.727C374.611 307.527 375.395 307.299 376.294 307.175C378.039 306.918 379.79 306.937 381.452 307.187C383.11 307.442 384.689 307.952 386.003 308.752C387.315 309.548 388.328 310.645 388.828 311.687C389.582 313.102 389.786 314.597 389.57 315.961C389.346 317.316 388.718 318.398 388.038 319.218C386.641 320.864 385.038 321.595 383.666 322.038C380.89 322.869 378.663 322.32 377.154 321.562C375.58 320.8 374.308 319.809 373.006 318.167C371.758 316.508 370.437 314.134 369.85 310.33C369.322 306.316 370.066 303.936 370.744 301.66C371.476 299.369 372.182 297.078 373.594 293.101C374.784 289.766 376.855 286.253 379.295 283.106C381.731 279.946 384.514 277.13 387.026 274.859C392.389 270.019 397.895 265.836 402.887 261.3C407.867 256.791 412.412 251.881 415.467 246.09C418.414 240.38 419.518 233.501 418.236 226.95C417.578 223.691 416.253 220.515 414.113 217.937C413.58 217.295 412.948 216.74 412.358 216.142C411.666 215.668 411.047 215.082 410.299 214.679C409.543 214.301 408.824 213.81 408.025 213.527C407.232 213.219 406.406 212.981 405.555 212.818C405.555 212.818 406.111 212.718 407.019 212.681C407.928 212.633 409.184 212.71 410.499 213.035C411.171 213.164 411.872 213.317 412.494 213.594C413.125 213.849 413.794 214.067 414.333 214.364C415.383 214.986 416.308 215.503 416.596 215.832C418.386 217.499 419.556 219.548 420.331 221.704C421.076 223.877 421.54 226.153 421.801 228.64C422.554 235.135 421.162 242.107 417.731 248.009C414.332 253.818 409.689 258.6 405.248 262.948C400.049 268.043 394.358 272.491 389.143 277.252C383.998 281.98 379.323 287.297 376.133 293.354C374.552 296.377 373.375 299.586 372.846 302.893C372.724 303.719 372.667 304.551 372.575 305.381C372.585 306.212 372.538 307.049 372.585 307.881C372.717 309.553 372.883 311.192 373.422 312.73C374.401 315.803 376.386 318.625 379.217 319.629C381.764 320.593 385.491 319.118 386.603 316.577C386.873 315.945 386.992 315.272 386.891 314.589C386.769 313.888 386.51 313.222 386.088 312.644C385.207 311.5 383.712 310.73 382.096 310.341C380.473 309.947 378.73 309.877 377.033 310.081C376.195 310.17 375.339 310.402 374.48 310.62C373.614 310.803 372.774 311.081 371.946 311.391C365.263 313.756 359.467 318.525 355.609 324.468C351.54 330.719 349.706 338.271 350.719 345.409C351.705 352.569 355.22 359.256 360.243 364.519C361.324 365.732 364.735 368.765 368.362 370.761C369.286 371.213 370.155 371.738 371.006 372.119C371.859 372.506 372.644 372.863 373.313 373.168C374.682 373.705 375.568 374.185 375.536 374.506Z" fill="url(#paint3_radial_60_6209)" fill-opacity="0.5"/>
<path fill-rule="evenodd" clip-rule="evenodd" d="M375.159 45.8028C375.226 45.9927 374.915 46.3012 374.15 46.7523C373.768 46.9785 373.272 47.2397 372.655 47.5383C372.056 47.894 371.341 48.3034 370.5 48.7601C367.955 50.2859 365.574 52.0171 363.361 53.9579C361.174 55.9327 359.187 58.1304 357.422 60.5037C353.895 65.2449 351.427 70.8938 350.715 76.7788C350.17 81.5782 350.827 85.1612 351.461 87.9538C351.889 89.326 352.181 90.5643 352.652 91.6258C352.867 92.1659 353.072 92.6785 353.272 93.1769C353.516 93.6555 353.75 94.1177 353.98 94.5721C354.905 96.39 356.014 97.9587 357.55 99.7096C359.146 101.398 361.174 103.333 364.372 105.224C363.73 104.821 367.345 108.012 372.743 109.848C373.399 110.118 374.095 110.305 374.803 110.484C375.505 110.667 376.232 110.89 376.89 110.988C378.248 111.215 379.657 111.23 380.937 111.083C382.218 110.935 383.374 110.605 384.241 110.155C385.106 109.702 385.697 109.171 386.044 108.668C387.07 107.168 386.814 105.542 385.981 104.379C385.163 103.191 383.972 102.498 382.954 102.111C381.912 101.726 380.968 101.654 380.18 101.733C379.394 101.796 378.74 102.062 378.114 102.378C376.895 103.017 375.94 103.867 374.905 105.255C373.915 106.665 372.782 108.691 372.151 112.043C371.556 115.648 371.392 117.879 371.457 120.219C371.56 122.535 371.961 125.072 374.15 128.635C377.742 134.591 383.503 141.165 388.498 145.5C393.82 150.187 399.386 154.293 404.549 158.842C409.699 163.376 414.542 168.398 417.934 174.598C421.27 180.878 422.576 188.279 421.238 195.639C420.538 199.299 419.078 202.983 416.542 206.09C415.912 206.86 415.162 207.548 414.449 208.264C413.629 208.858 412.865 209.558 411.969 210.059C411.059 210.537 410.197 211.108 409.206 211.474C408.231 211.86 407.218 212.156 406.183 212.363C406.183 212.363 406.797 212.062 407.669 211.503C408.547 210.956 409.634 210.095 410.563 209.074C411.047 208.595 411.516 208.113 411.882 207.551C412.258 207.008 412.647 206.551 412.919 206.063C413.436 205.057 413.878 204.372 414.029 204.02C414.504 203.111 415.046 202.332 415.449 201.453C415.939 200.635 416.296 199.751 416.713 198.88C417.452 197.102 418.139 195.186 418.34 192.969C418.938 187.24 418.021 180.867 415.131 175.457C412.188 169.954 407.822 165.229 403.163 161.372C397.72 156.847 391.871 152.694 386.36 147.871C380.847 142.999 375.853 137.311 372.451 130.53C370.767 127.147 369.524 123.474 369.041 119.642C368.93 118.686 368.893 117.716 368.827 116.756C368.863 115.789 368.852 114.821 368.94 113.859C369.154 111.955 369.443 109.993 370.166 108.144C370.845 106.293 371.813 104.514 373.152 102.971C374.479 101.426 376.25 100.161 378.271 99.5186C380.434 98.8654 382.671 99.1585 384.566 100.022C386.442 100.9 388.176 102.343 389.001 104.449C389.413 105.501 389.561 106.699 389.349 107.824C389.133 108.916 388.667 109.968 387.971 110.842C386.527 112.565 384.518 113.411 382.599 113.825C380.653 114.235 378.692 114.255 376.766 113.981C375.786 113.851 374.879 113.583 373.972 113.337C373.051 113.121 372.161 112.812 371.283 112.468C364.206 109.832 358.156 104.869 353.875 98.7084C349.38 92.246 346.819 84.2819 347.496 76.2498C348.145 68.2571 351.773 60.5674 357.458 54.7768C358.672 53.4507 362.426 49.9709 366.612 47.9302C367.673 47.4659 368.682 46.9576 369.673 46.6272C370.672 46.3154 371.579 46.0059 372.379 45.8423C373.99 45.5558 375.053 45.502 375.159 45.8028Z" fill="url(#paint4_radial_60_6209)" fill-opacity="0.5"/>
<path fill-rule="evenodd" clip-rule="evenodd" d="M374.503 46.4599C374.704 46.4829 374.824 46.8639 374.827 47.7366C374.829 48.1735 374.801 48.7333 374.739 49.4337C374.619 50.1154 374.449 50.9332 374.225 51.9058C373.423 54.8598 372.078 57.7458 370.288 60.3946C368.467 63.0215 366.197 65.3773 363.637 67.3993C358.515 71.4522 352.094 73.9605 345.547 74.5555C340.182 75.0077 336.26 74.0549 333.288 73.1724C331.825 72.6202 330.522 72.2085 329.407 71.6388C328.843 71.3775 328.303 71.1273 327.783 70.8858C327.28 70.6091 326.794 70.3423 326.316 70.08C324.396 69.047 322.697 67.9449 320.629 66.5288C318.62 65.0403 316.181 63.2641 313.351 60.1838C314.034 60.7239 310.457 56.6887 308.422 50.5435C308.128 49.797 307.92 49.0012 307.726 48.1943C307.526 47.3864 307.298 46.6026 307.174 45.7036C306.917 43.9581 306.936 42.2073 307.185 40.5464C307.44 38.8888 307.95 37.3091 308.75 35.9951C309.546 34.6833 310.643 33.6701 311.685 33.1706C313.1 32.4165 314.595 32.2123 315.959 32.4285C317.314 32.6525 318.396 33.2804 319.216 33.9599C320.862 35.3573 321.593 36.96 322.036 38.3322C322.869 41.1084 322.317 43.3357 321.561 44.8451C320.799 46.4192 319.808 47.6916 318.166 48.9935C316.507 50.2416 314.133 51.5622 310.329 52.1494C306.315 52.6775 303.935 51.9332 301.659 51.2559C299.368 50.5237 297.077 49.8179 293.1 48.4051C289.765 47.2151 286.254 45.1459 283.105 42.7045C279.945 40.2686 277.129 37.4858 274.859 34.9742C270.019 29.6117 265.837 24.1054 261.301 19.1129C256.792 14.1335 251.88 9.58889 246.091 6.53278C240.381 3.58644 233.502 2.48214 226.951 3.76431C223.692 4.42185 220.516 5.74681 217.939 7.8874C217.297 8.41981 216.741 9.0521 216.143 9.64159C215.67 10.3343 215.083 10.9534 214.681 11.701C214.302 12.4573 213.811 13.1764 213.528 13.9755C213.22 14.767 212.982 15.5947 212.819 16.4454C212.819 16.4454 212.719 15.8889 212.683 14.981C212.635 14.0721 212.71 12.8152 213.036 11.5012C213.166 10.8294 213.318 10.1279 213.595 9.50658C213.851 8.87538 214.068 8.2058 214.366 7.6668C214.987 6.61736 215.505 5.69083 215.833 5.40432C217.501 3.6139 219.549 2.44373 221.705 1.66872C223.878 0.92445 226.154 0.460117 228.641 0.198855C235.136 -0.554196 242.108 0.83769 248.009 4.27033C253.818 7.66894 258.6 12.3125 262.948 16.7528C268.042 21.9528 272.491 27.6446 277.251 32.8589C281.979 38.004 287.296 42.6782 293.354 45.8682C296.376 47.4501 299.587 48.6258 302.892 49.156C303.718 49.2778 304.55 49.3349 305.381 49.426C306.212 49.4161 307.049 49.4622 307.88 49.4172C309.552 49.2844 311.19 49.1197 312.729 48.5796C315.802 47.6004 318.623 45.6157 319.628 42.7846C320.593 40.239 319.117 36.511 316.577 35.4001C315.945 35.1301 315.272 35.0104 314.589 35.1114C313.888 35.2333 313.222 35.4923 312.645 35.9139C311.501 36.7943 310.731 38.2894 310.343 39.9042C309.949 41.5277 309.878 43.272 310.083 44.968C310.172 45.8056 310.405 46.6619 310.621 47.5214C310.804 48.3875 311.082 49.2273 311.393 50.0561C313.758 56.738 318.527 62.5363 324.469 66.3927C330.72 70.462 338.27 72.2952 345.41 71.2831C352.569 70.2973 359.257 66.7824 364.519 61.7591C365.732 60.6778 368.765 57.2672 370.761 53.6402C371.213 52.7159 371.738 51.8465 372.119 50.9958C372.506 50.1428 372.863 49.3579 373.168 48.6883C373.702 47.3161 374.181 46.4302 374.503 46.4599Z" fill="url(#paint5_radial_60_6209)" fill-opacity="0.5"/>
<path fill-rule="evenodd" clip-rule="evenodd" d="M45.8041 46.8397C45.9941 46.7727 46.3025 47.0834 46.7537 47.8485C46.9798 48.2305 47.2411 48.7267 47.5385 49.3448C47.8942 49.9441 48.3037 50.6587 48.7603 51.4996C50.2862 54.0442 52.0162 56.4262 53.9592 58.6393C55.934 60.8271 58.1316 62.814 60.506 64.5803C65.2471 68.1073 70.896 70.5751 76.7809 71.2875C81.5802 71.832 85.1631 71.1756 87.9558 70.5411C89.329 70.114 90.5662 69.8209 91.6277 69.35C92.1667 69.1337 92.6815 68.9284 93.1788 68.7297C93.6563 68.4871 94.1195 68.2523 94.574 68.0218C96.3918 67.0975 97.9604 65.9876 99.7113 64.4519C101.4 62.8558 103.335 60.8282 105.225 57.6294C104.822 58.2716 108.013 54.6567 109.85 49.2591C110.12 48.6027 110.307 47.9067 110.484 47.1998C110.668 46.4983 110.891 45.7705 110.988 45.113C111.215 43.7551 111.231 42.3455 111.084 41.0655C110.936 39.7845 110.605 38.6286 110.155 37.7614C109.703 36.8964 109.172 36.3057 108.669 35.9588C107.168 34.9324 105.542 35.1882 104.38 36.0214C103.191 36.8392 102.498 38.0303 102.112 39.049C101.727 40.0908 101.654 41.0348 101.733 41.823C101.797 42.609 102.063 43.2632 102.379 43.8889C103.018 45.1074 103.867 46.0625 105.256 47.0976C106.665 48.0878 108.692 49.2207 112.042 49.8508C115.648 50.4469 117.879 50.6093 120.219 50.5456C122.535 50.4424 125.072 50.0418 128.635 47.8529C134.592 44.261 141.165 38.5001 145.501 33.5054C150.188 28.1835 154.294 22.618 158.844 17.4553C163.378 12.3058 168.399 7.46257 174.599 4.07055C180.88 0.734514 188.28 -0.571775 195.641 0.766373C199.302 1.46563 202.985 2.92565 206.091 5.46253C206.862 6.09263 207.55 6.84234 208.266 7.55587C208.859 8.37589 209.56 9.13992 210.06 10.0357C210.538 10.9457 211.11 11.8075 211.475 12.7987C211.862 13.7735 212.157 14.7867 212.364 15.8219C212.364 15.8219 212.064 15.2072 211.504 14.3356C210.957 13.4574 210.097 12.3706 209.076 11.4419C208.596 10.9578 208.114 10.4891 207.552 10.1224C207.01 9.74698 206.552 9.35731 206.065 9.08506C205.058 8.56803 204.373 8.12672 204.022 7.97523C203.113 7.50101 202.333 6.95872 201.454 6.55585C200.636 6.06516 199.753 5.70842 198.881 5.29128C197.104 4.5525 195.187 3.86526 192.971 3.66657C187.242 3.0683 180.869 3.98602 175.459 6.87527C169.956 9.81832 165.231 14.1851 161.374 18.8439C156.849 24.2865 152.696 30.1364 147.872 35.6482C143 41.161 137.312 46.1558 130.531 49.5577C127.147 51.2405 123.475 52.4843 119.644 52.9673C118.688 53.0782 117.718 53.1166 116.758 53.1814C115.791 53.1451 114.823 53.1561 113.861 53.0683C111.956 52.8542 109.995 52.5655 108.145 51.8421C106.295 51.1626 104.517 50.1965 102.973 48.8562C101.428 47.529 100.162 45.7584 99.5203 43.7375C98.8672 41.5738 99.1603 39.3377 100.024 37.4419C100.901 35.5659 102.346 33.8337 104.451 33.0081C105.504 32.5965 106.702 32.4483 107.827 32.6602C108.919 32.8764 109.971 33.3419 110.844 34.0378C112.568 35.4824 113.413 37.4913 113.828 39.4102C114.238 41.3565 114.256 43.3181 113.984 45.2436C113.853 46.2239 113.585 47.1306 113.34 48.0373C113.123 48.9583 112.815 49.8486 112.47 50.7268C109.835 57.8039 104.872 63.8536 98.7113 68.1348C92.2467 72.63 84.285 75.191 76.253 74.5137C68.2604 73.865 60.5707 70.237 54.7802 64.5518C53.4542 63.3376 49.9733 59.5822 47.9337 55.3977C47.4694 54.3361 46.9611 53.3274 46.6296 52.335C46.3168 51.3372 46.0072 50.4304 45.8447 49.6291C45.5571 48.0088 45.5034 46.9451 45.8041 46.8397Z" fill="url(#paint6_radial_60_6209)" fill-opacity="0.5"/>
<path fill-rule="evenodd" clip-rule="evenodd" d="M46.4615 47.495C46.4835 47.293 46.8654 47.1745 47.7381 47.1712C48.1739 47.1701 48.7349 47.1975 49.4342 47.2601C50.117 47.3786 50.9336 47.5499 51.9062 47.7738C54.8602 48.5763 57.7472 49.9221 60.3949 51.7114C63.0207 53.5315 65.3764 55.8038 67.3995 58.3626C71.4523 63.4847 73.9607 69.9054 74.5556 76.4523C75.0079 81.8181 74.055 85.7393 73.1725 88.7119C72.6203 90.1752 72.2097 91.4793 71.6389 92.5925C71.3766 93.1578 71.1274 93.6967 70.8859 94.2171C70.6093 94.7198 70.3426 95.2061 70.0791 95.6848C69.0461 97.6047 67.9429 99.3029 66.5279 101.372C65.0394 103.381 63.2633 105.82 60.183 108.65C60.7231 107.967 56.6879 111.544 50.5428 113.579C49.7964 113.873 49.0005 114.081 48.1937 114.275C47.3857 114.475 46.602 114.703 45.7029 114.827C43.9576 115.084 42.2067 115.065 40.5458 114.816C38.8883 114.562 37.3086 114.051 35.9946 113.251C34.6829 112.455 33.6686 111.357 33.1702 110.317C32.4161 108.902 32.2119 107.406 32.4281 106.042C32.6521 104.687 33.2799 103.605 33.9594 102.785C35.3568 101.139 36.9595 100.408 38.3317 99.9649C41.1078 99.1317 43.3351 99.6839 44.8445 100.44C46.4186 101.202 47.6909 102.193 48.9928 103.836C50.241 105.494 51.5615 107.869 52.1488 111.672C52.6768 115.687 51.9326 118.067 51.2553 120.342C50.5231 122.633 49.8172 124.924 48.4044 128.901C47.2145 132.236 45.1442 135.749 42.704 138.896C40.2681 142.057 37.4854 144.872 34.9727 147.144C29.6103 151.984 24.104 156.166 19.1116 160.702C14.1323 165.211 9.58663 170.122 6.53165 175.912C3.58535 181.623 2.48104 188.501 3.76318 195.052C4.42072 198.312 5.74569 201.487 7.88626 204.065C8.41865 204.707 9.0509 205.262 9.63928 205.86C10.3319 206.333 10.9522 206.92 11.6998 207.323C12.4561 207.702 13.1751 208.192 13.9742 208.476C14.7668 208.783 15.5934 209.021 16.4441 209.185C16.4441 209.185 15.8876 209.285 14.9797 209.321C14.0708 209.369 12.8139 209.293 11.4999 208.967C10.8281 208.838 10.1267 208.685 9.50538 208.409C8.87419 208.153 8.20459 207.935 7.6667 207.639C6.61727 207.018 5.69078 206.5 5.40428 206.171C3.61388 204.504 2.44372 202.456 1.66873 200.3C0.92447 198.126 0.46011 195.85 0.19885 193.363C-0.55419 186.869 0.83777 179.896 4.26927 173.994C7.66783 168.185 12.3112 163.403 16.7515 159.055C21.9515 153.961 27.642 149.513 32.8573 144.752C38.0024 140.024 42.6765 134.706 45.8665 128.649C47.4483 125.627 48.6251 122.417 49.1542 119.111C49.2761 118.284 49.3331 117.452 49.4253 116.622C49.4154 115.791 49.4616 114.955 49.4166 114.124C49.2838 112.452 49.118 110.813 48.579 109.275C47.5998 106.201 45.6162 103.381 42.7841 102.376C40.2373 101.412 36.5106 102.886 35.3986 105.427C35.1285 106.06 35.0089 106.732 35.1099 107.415C35.2318 108.117 35.4908 108.782 35.9123 109.359C36.7927 110.503 38.2878 111.274 39.9036 111.662C41.5272 112.057 43.2704 112.127 44.9675 111.923C45.8051 111.834 46.6613 111.601 47.5208 111.385C48.3869 111.201 49.2267 110.924 50.0555 110.613C56.7373 108.247 62.5344 103.48 66.3907 97.5356C70.46 91.2839 72.2943 83.7326 71.2811 76.5939C70.2953 69.4345 66.7793 62.7459 61.7572 57.4844C60.676 56.2714 57.2653 53.2384 53.6384 51.2427C52.7141 50.7904 51.8447 50.2657 50.994 49.8848C50.141 49.4973 49.3562 49.1405 48.6866 48.8353C47.3166 48.2953 46.4308 47.8155 46.4615 47.495Z" fill="url(#paint7_radial_60_6209)" fill-opacity="0.5"/>
<path fill-rule="evenodd" clip-rule="evenodd" d="M46.8417 376.199C46.7748 376.009 47.0855 375.7 47.8506 375.249C48.2326 375.023 48.7288 374.762 49.3457 374.463C49.945 374.107 50.6596 373.698 51.5005 373.241C54.045 371.715 56.426 369.984 58.6401 368.042C60.8279 366.068 62.8148 363.87 64.581 361.495C68.108 356.754 70.5757 351.105 71.2881 345.22C71.8326 340.421 71.1761 336.838 70.5417 334.045C70.1135 332.673 69.8216 331.435 69.3506 330.373C69.1355 329.833 68.9302 329.321 68.7304 328.822C68.4867 328.344 68.2529 327.882 68.0224 327.427C67.0981 325.609 65.9883 324.04 64.4526 322.29C62.8565 320.601 60.829 318.666 57.6302 316.776C58.2724 317.178 54.6576 313.987 49.26 312.151C48.6036 311.881 47.9076 311.694 47.1996 311.515C46.4981 311.332 45.7703 311.109 45.1128 311.011C43.7549 310.784 42.3455 310.769 41.0655 310.916C39.7856 311.065 38.6286 311.394 37.7614 311.845C36.8964 312.297 36.3058 312.828 35.9589 313.331C34.9325 314.831 35.1883 316.457 36.0214 317.62C36.8393 318.809 38.0292 319.5 39.049 319.888C40.0907 320.273 41.0348 320.345 41.8229 320.266C42.6089 320.203 43.2631 319.937 43.8888 319.621C45.1073 318.982 46.0624 318.132 47.0975 316.744C48.0877 315.334 49.2206 313.308 49.8517 309.956C50.4478 306.35 50.6103 304.12 50.5466 301.779C50.4445 299.464 50.0428 296.926 47.8539 293.363C44.2621 287.407 38.5001 280.832 33.5066 276.497C28.1848 271.81 22.6193 267.704 17.4556 263.155C12.3062 258.621 7.46299 253.599 4.07101 247.399C0.735016 241.119 -0.57129 233.718 0.766839 226.358C1.46609 222.699 2.92715 219.014 5.4629 215.907C6.09299 215.137 6.84279 214.449 7.55631 213.733C8.37632 213.139 9.14034 212.438 10.0361 211.938C10.945 211.459 11.8078 210.889 12.7979 210.522C13.7727 210.135 14.7859 209.84 15.8222 209.634C15.8222 209.634 15.2074 209.935 14.3358 210.494C13.4577 211.041 12.3709 211.902 11.4422 212.923C10.9581 213.402 10.4894 213.884 10.1228 214.446C9.74736 214.989 9.35762 215.446 9.08539 215.934C8.56836 216.94 8.12712 217.625 7.97563 217.977C7.50141 218.886 6.95914 219.665 6.55627 220.544C6.06559 221.362 5.70878 222.246 5.29165 223.117C4.55288 224.895 3.86575 226.811 3.66707 229.028C3.0688 234.757 3.98651 241.13 6.87573 246.54C9.81983 252.042 14.1855 256.768 18.8443 260.625C24.2868 265.15 30.1365 269.303 35.6471 274.126C41.1599 278.998 46.1546 284.686 49.5564 291.467C51.2404 294.85 52.483 298.523 52.966 302.355C53.0757 303.312 53.1153 304.28 53.1801 305.241C53.1438 306.208 53.1548 307.176 53.0669 308.138C52.8529 310.042 52.5642 312.004 51.8408 313.853C51.1624 315.704 50.1953 317.482 48.855 319.026C47.5278 320.571 45.7572 321.836 43.7363 322.478C41.5727 323.132 39.3366 322.838 37.4408 321.975C35.5648 321.097 33.8315 319.654 33.0071 317.547C32.5955 316.495 32.4472 315.297 32.6591 314.172C32.8764 313.078 33.3408 312.028 34.0368 311.154C35.4814 309.431 37.4902 308.585 39.4091 308.17C41.3553 307.761 43.3169 307.74 45.2423 308.015C46.2226 308.145 47.1294 308.413 48.0361 308.659C48.9571 308.875 49.8473 309.184 50.7255 309.528C57.8025 312.164 63.8521 317.127 68.1333 323.287C72.6274 329.751 75.1894 337.714 74.5122 345.746C73.8634 353.739 70.2354 361.428 64.5503 367.219C63.3362 368.545 59.5809 372.026 55.3964 374.066C54.3349 374.53 53.326 375.038 52.3337 375.37C51.3348 375.682 50.428 375.991 49.6278 376.155C48.0108 376.446 46.9471 376.499 46.8417 376.199Z" fill="url(#paint8_radial_60_6209)" fill-opacity="0.5"/>
<path fill-rule="evenodd" clip-rule="evenodd" d="M47.4962 375.54C47.2942 375.518 47.1757 375.136 47.1724 374.263C47.1713 373.828 47.1987 373.267 47.2602 372.566C47.3788 371.884 47.55 371.067 47.7739 370.094C48.5764 367.14 49.9211 364.254 51.7114 361.605C53.5326 358.979 55.8027 356.623 58.3626 354.601C63.4857 350.547 69.9052 348.039 76.4521 347.444C81.8178 346.992 85.7399 347.946 88.7115 348.828C90.1747 349.38 91.4777 349.792 92.5919 350.361C93.1561 350.622 93.6963 350.873 94.2166 351.114C94.7193 351.391 95.2056 351.658 95.6831 351.92C97.603 352.953 99.3012 354.056 101.37 355.471C103.379 356.96 105.82 358.735 108.648 361.816C107.966 361.276 111.542 365.311 113.577 371.457C113.871 372.203 114.079 372.999 114.273 373.806C114.473 374.614 114.701 375.397 114.825 376.296C115.082 378.042 115.063 379.793 114.814 381.454C114.56 383.111 114.049 384.691 113.249 386.005C112.453 387.317 111.355 388.331 110.315 388.829C108.9 389.584 107.405 389.788 106.04 389.571C104.686 389.348 103.603 388.72 102.783 388.04C101.138 386.643 100.407 385.04 99.9631 383.668C99.1311 380.893 99.6821 378.664 100.438 377.155C101.2 375.581 102.192 374.308 103.834 373.007C105.492 371.758 107.867 370.438 111.67 369.85C115.685 369.322 118.065 370.067 120.34 370.744C122.631 371.476 124.922 372.182 128.899 373.595C132.234 374.785 135.746 376.854 138.894 379.295C142.054 381.731 144.87 384.514 147.14 387.026C151.98 392.388 156.162 397.894 160.698 402.887C165.208 407.866 170.118 412.412 175.908 415.467C181.619 418.413 188.497 419.518 195.048 418.236C198.307 417.578 201.483 416.253 204.061 414.113C204.703 413.58 205.258 412.948 205.855 412.359C206.329 411.667 206.915 411.048 207.319 410.299C207.697 409.543 208.188 408.824 208.471 408.024C208.78 407.233 209.017 406.405 209.18 405.555C209.18 405.555 209.28 406.111 209.317 407.019C209.365 407.928 209.288 409.184 208.963 410.499C208.834 411.171 208.681 411.872 208.404 412.493C208.149 413.125 207.931 413.794 207.634 414.333C207.012 415.383 206.494 416.309 206.166 416.596C204.499 418.386 202.45 419.556 200.294 420.331C198.121 421.076 195.845 421.54 193.358 421.801C186.864 422.554 179.891 421.162 173.991 417.73C168.181 414.331 163.4 409.688 159.052 405.247C153.957 400.047 149.508 394.355 144.748 389.141C140.02 383.996 134.703 379.322 128.646 376.132C125.624 374.55 122.413 373.374 119.108 372.844C118.281 372.722 117.449 372.665 116.619 372.573C115.788 372.583 114.952 372.537 114.121 372.582C112.449 372.715 110.81 372.88 109.272 373.419C106.198 374.398 103.377 376.383 102.373 379.214C101.408 381.76 102.883 385.488 105.423 386.599C106.056 386.869 106.728 386.988 107.411 386.887C108.113 386.766 108.778 386.507 109.355 386.085C110.499 385.205 111.27 383.71 111.658 382.094C112.052 380.47 112.123 378.727 111.918 377.03C111.828 376.191 111.597 375.336 111.381 374.476C111.197 373.61 110.92 372.771 110.609 371.942C108.243 365.26 103.475 359.461 97.5317 355.606C91.2802 351.537 83.73 349.704 76.5904 350.716C69.431 351.702 62.7436 355.217 57.4811 360.24C56.2681 361.321 53.2351 364.732 51.2395 368.359C50.7872 369.283 50.2625 370.152 49.8816 371.003C49.4941 371.856 49.1373 372.641 48.8321 373.311C48.2986 374.685 47.8178 375.572 47.4962 375.54Z" fill="url(#paint9_radial_60_6209)" fill-opacity="0.5"/>
<defs>
<radialGradient id="paint0_radial_60_6209" cx="0" cy="0" r="1" gradientUnits="userSpaceOnUse" gradientTransform="translate(211 114.227) rotate(90) scale(262.736)">
<stop stop-color="#3C3C3C"/>
<stop offset="1" stop-color="#A2A2A2" stop-opacity="0.05"/>
</radialGradient>
<radialGradient id="paint1_radial_60_6209" cx="0" cy="0" r="1" gradientUnits="userSpaceOnUse" gradientTransform="translate(211 114.227) rotate(90) scale(262.736)">
<stop stop-color="#3C3C3C"/>
<stop offset="1" stop-color="#A2A2A2" stop-opacity="0.05"/>
</radialGradient>
<radialGradient id="paint2_radial_60_6209" cx="0" cy="0" r="1" gradientUnits="userSpaceOnUse" gradientTransform="translate(211 114.227) rotate(90) scale(262.736)">
<stop stop-color="#3C3C3C"/>
<stop offset="1" stop-color="#A2A2A2" stop-opacity="0.05"/>
</radialGradient>
<radialGradient id="paint3_radial_60_6209" cx="0" cy="0" r="1" gradientUnits="userSpaceOnUse" gradientTransform="translate(211 114.227) rotate(90) scale(262.736)">
<stop stop-color="#3C3C3C"/>
<stop offset="1" stop-color="#A2A2A2" stop-opacity="0.05"/>
</radialGradient>
<radialGradient id="paint4_radial_60_6209" cx="0" cy="0" r="1" gradientUnits="userSpaceOnUse" gradientTransform="translate(211 114.227) rotate(90) scale(262.736)">
<stop stop-color="#3C3C3C"/>
<stop offset="1" stop-color="#A2A2A2" stop-opacity="0.05"/>
</radialGradient>
<radialGradient id="paint5_radial_60_6209" cx="0" cy="0" r="1" gradientUnits="userSpaceOnUse" gradientTransform="translate(211 114.227) rotate(90) scale(262.736)">
<stop stop-color="#3C3C3C"/>
<stop offset="1" stop-color="#A2A2A2" stop-opacity="0.05"/>
</radialGradient>
<radialGradient id="paint6_radial_60_6209" cx="0" cy="0" r="1" gradientUnits="userSpaceOnUse" gradientTransform="translate(211 114.227) rotate(90) scale(262.736)">
<stop stop-color="#3C3C3C"/>
<stop offset="1" stop-color="#A2A2A2" stop-opacity="0.05"/>
</radialGradient>
<radialGradient id="paint7_radial_60_6209" cx="0" cy="0" r="1" gradientUnits="userSpaceOnUse" gradientTransform="translate(211 114.227) rotate(90) scale(262.736)">
<stop stop-color="#3C3C3C"/>
<stop offset="1" stop-color="#A2A2A2" stop-opacity="0.05"/>
</radialGradient>
<radialGradient id="paint8_radial_60_6209" cx="0" cy="0" r="1" gradientUnits="userSpaceOnUse" gradientTransform="translate(211 114.227) rotate(90) scale(262.736)">
<stop stop-color="#3C3C3C"/>
<stop offset="1" stop-color="#A2A2A2" stop-opacity="0.05"/>
</radialGradient>
<radialGradient id="paint9_radial_60_6209" cx="0" cy="0" r="1" gradientUnits="userSpaceOnUse" gradientTransform="translate(211 114.227) rotate(90) scale(262.736)">
<stop stop-color="#3C3C3C"/>
<stop offset="1" stop-color="#A2A2A2" stop-opacity="0.05"/>
</radialGradient>
</defs>
</svg>
