<svg width="34" height="34" viewBox="0 0 34 34" fill="none" xmlns="http://www.w3.org/2000/svg">
<rect y="17" width="24" height="24" rx="3" transform="rotate(-45 0 17)" fill="url(#paint0_linear_60_5350)"/>
<path d="M18.8259 10.6035C18.8259 9.9082 18.7595 9.41602 18.6267 9.12695C18.4783 8.83008 18.2478 8.68945 17.9353 8.70508C17.6228 8.7207 17.3416 8.88086 17.0916 9.18555V11.1543C17.0916 11.5215 17.0251 11.7793 16.8923 11.9277C16.7673 12.0684 16.6033 12.1855 16.4001 12.2793L13.9041 13.4863L13.5642 13.1465C13.9939 12.6699 14.2087 12.1582 14.2087 11.6113V8.86914C14.2087 8.83008 14.3767 8.73242 14.7126 8.57617C15.0486 8.41211 15.4666 8.22461 15.9666 8.01367C16.4744 7.80273 16.9939 7.5957 17.5251 7.39258C18.0564 7.18164 18.5251 7.00977 18.9314 6.87695C19.3376 6.73633 19.5994 6.66602 19.7166 6.66602C19.865 6.66602 20.0486 6.77148 20.2673 6.98242C20.4939 7.18555 20.7126 7.43945 20.9236 7.74414C21.1423 8.04102 21.3259 8.3418 21.4744 8.64648C21.6228 8.94336 21.697 9.18555 21.697 9.37305V13.5332C21.697 13.8066 21.5134 14.1543 21.1462 14.5762C20.7869 14.998 20.3376 15.4277 19.7986 15.8652C19.2595 16.2949 18.7322 16.6777 18.2166 17.0137L17.0681 17.752V18.4316C17.0681 18.9238 17.1501 19.3105 17.3142 19.5918C17.4861 19.873 17.6619 20.0293 17.8416 20.0605L18.0759 20.1074V20.6348C16.5212 21.5488 15.6892 22.0059 15.5798 22.0059C15.5095 22.0059 15.365 21.9238 15.1462 21.7598C14.9275 21.5879 14.7205 21.3809 14.5251 21.1387C14.3298 20.8965 14.2322 20.666 14.2322 20.4473V17.2012C14.2322 17.123 14.3962 16.9668 14.7244 16.7324C15.0603 16.4902 15.4587 16.2168 15.9197 15.9121C16.3884 15.6074 16.8298 15.3184 17.2439 15.0449C17.658 14.7715 17.947 14.5645 18.1111 14.4238C18.5876 14.0176 18.8259 13.6699 18.8259 13.3809V10.6035ZM14.2087 25.5332V24.0684C14.2087 24.0449 14.3064 23.9902 14.5017 23.9043C14.7048 23.8184 14.9392 23.7246 15.2048 23.623C15.4783 23.5215 15.7244 23.4355 15.9431 23.3652C16.1697 23.2871 16.3103 23.248 16.365 23.248C16.4744 23.248 16.6267 23.3848 16.822 23.6582C17.0173 23.9316 17.115 24.2129 17.115 24.502V26.248C17.115 26.2715 17.0173 26.3262 16.822 26.4121C16.6345 26.498 16.4119 26.5918 16.1541 26.6934C15.8962 26.7949 15.6541 26.8809 15.4275 26.9512C15.2009 27.0293 15.0525 27.0684 14.9822 27.0684C14.7947 27.0684 14.6189 26.9082 14.4548 26.5879C14.2908 26.2676 14.2087 25.916 14.2087 25.5332Z" fill="#1F2328"/>
<defs>
<linearGradient id="paint0_linear_60_5350" x1="12" y1="19.5" x2="12" y2="33" gradientUnits="userSpaceOnUse">
<stop stop-color="white"/>
<stop offset="1" stop-color="#999999"/>
</linearGradient>
</defs>
</svg>
